HIERARCHY
ROOT Hips
{
	OFFSET 0.000000 0.000000 0.000000
	CHANNELS 6 Xposition Yposition Zposition Xrotation Yrotation Zrotation
	JOINT LeftUpLeg_virtual
	{
		OFFSET 0.000000 0.000000 0.000000
		CHANNELS 3 Xrotation Yrotation Zrotation
		JOINT LeftUpLeg
		{
			OFFSET 10.205400 -3.823500 0.155100
			CHANNELS 3 Xrotation Yrotation Zrotation
			JOINT LeftLeg
			{
				OFFSET 0.708757 -12.982077 0.567790
				CHANNELS 3 Xrotation Yrotation Zrotation
				JOINT LeftFoot
				{
					OFFSET -0.708756 -10.717838 -2.184338
					CHANNELS 3 Xrotation Yrotation Zrotation
					JOINT LeftToeBase
					{
						OFFSET 0.108149 -7.191104 7.560241
						CHANNELS 3 Xrotation Yrotation Zrotation
						JOINT LeftToe_End
						{
							OFFSET 0.070230 0.081724 4.490308
							CHANNELS 3 Xrotation Yrotation Zrotation
							End Site
							{
								OFFSET 0 0 0
							}
						}
					}
				}
			}
		}
	}
	JOINT RightUpLeg_virtual
	{
		OFFSET 0.000000 0.000000 0.000000
		CHANNELS 3 Xrotation Yrotation Zrotation
		JOINT RightUpLeg
		{
			OFFSET -10.205400 -3.823500 0.005500
			CHANNELS 3 Xrotation Yrotation Zrotation
			JOINT RightLeg
			{
				OFFSET -0.708756 -12.982134 0.610632
				CHANNELS 3 Xrotation Yrotation Zrotation
				JOINT RightFoot
				{
					OFFSET 0.708754 -10.717769 -1.945823
					CHANNELS 3 Xrotation Yrotation Zrotation
					JOINT RightToeBase
					{
						OFFSET -0.108140 -7.191069 7.372968
						CHANNELS 3 Xrotation Yrotation Zrotation
						JOINT RightToe_End
						{
							OFFSET -0.070227 0.081735 4.479403
							CHANNELS 3 Xrotation Yrotation Zrotation
							End Site
							{
								OFFSET 0 0 0
							}
						}
					}
				}
			}
		}
	}
	JOINT Spine_virtual
	{
		OFFSET 0.000000 0.000000 0.000000
		CHANNELS 3 Xrotation Yrotation Zrotation
		JOINT Spine
		{
			OFFSET 0.000000 6.876099 0.125700
			CHANNELS 3 Xrotation Yrotation Zrotation
			JOINT Spine1
			{
				OFFSET 0.000000 5.730043 0.104720
				CHANNELS 3 Xrotation Yrotation Zrotation
				JOINT Spine1_split
				{
					OFFSET 0.000000 5.730043 0.104720
					CHANNELS 3 Xrotation Yrotation Zrotation
					JOINT Spine2
					{
						OFFSET 0.000000 5.730043 0.104720
						CHANNELS 3 Xrotation Yrotation Zrotation
						JOINT Neck_virtual
						{
							OFFSET 0.000000 0.000000 0.000000
							CHANNELS 3 Xrotation Yrotation Zrotation
							JOINT Neck
							{
								OFFSET 0.000000 10.314075 0.188496
								CHANNELS 3 Xrotation Yrotation Zrotation
								JOINT Head
								{
									OFFSET 0.000000 7.643700 -2.377400
									CHANNELS 3 Xrotation Yrotation Zrotation
									JOINT HeadTop_End
									{
										OFFSET 0.000000 43.788605 -13.619600
										CHANNELS 3 Xrotation Yrotation Zrotation
										End Site
										{
											OFFSET 0 0 0
										}
									}
								}
							}
						}
						JOINT LeftShoulder_virtual
						{
							OFFSET 0.000000 0.000000 0.000000
							CHANNELS 3 Xrotation Yrotation Zrotation
							JOINT LeftShoulder
							{
								OFFSET 2.196100 4.412489 0.087492
								CHANNELS 3 Xrotation Yrotation Zrotation
								JOINT LeftShoulder_split
								{
									OFFSET 2.196100 4.412489 0.087492
									CHANNELS 3 Xrotation Yrotation Zrotation
									JOINT LeftArm
									{
										OFFSET 8.771219 -2.981674 -0.026999
										CHANNELS 3 Xrotation Yrotation Zrotation
										JOINT LeftForeArm
										{
											OFFSET 8.512804 0.000000 -0.000000
											CHANNELS 3 Xrotation Yrotation Zrotation
											JOINT LeftHand
											{
												OFFSET 18.484802 0.000000 -0.000000
												CHANNELS 3 Xrotation Yrotation Zrotation
												End Site
												{
													OFFSET 0 0 0
												}
											}
										}
									}
								}
							}
						}
						JOINT RightShoulder_virtual
						{
							OFFSET 0.000000 0.000000 0.000000
							CHANNELS 3 Xrotation Yrotation Zrotation
							JOINT RightShoulder
							{
								OFFSET -2.196100 4.412496 0.070690
								CHANNELS 3 Xrotation Yrotation Zrotation
								JOINT RightShoulder_split
								{
									OFFSET -2.196100 4.412496 0.070690
									CHANNELS 3 Xrotation Yrotation Zrotation
									JOINT RightArm
									{
										OFFSET -8.771282 -2.981682 -0.094208
										CHANNELS 3 Xrotation Yrotation Zrotation
										JOINT RightForeArm
										{
											OFFSET -8.494598 0.000000 0.000000
											CHANNELS 3 Xrotation Yrotation Zrotation
											JOINT RightHand
											{
												OFFSET -18.483803 0.000000 0.000001
												CHANNELS 3 Xrotation Yrotation Zrotation
												End Site
												{
													OFFSET 0 0 0
												}
											}
										}
									}
								}
							}
						}
					}
				}
			}
		}
	}
}
MOTION
Frames: 9
Frame Time: 0.03333333
0.005157 36.849770 -0.403694 0.000000 0.000000 0.000000 -87.479321 -6.856519 -1.229709 8.928626 23.937165 13.912568 -2.202075 -0.135155 4.290364 15.109290 29.971919 -25.472736 -3.651033 -0.193161 1.716299 0.000000 0.000000 0.000000 -89.931612 -3.335701 1.016546 12.600748 -25.119945 -18.279154 -7.328504 -0.935593 -5.298527 30.673697 -33.161265 38.106524 -10.533030 0.921021 -2.955536 0.000000 0.000000 0.000000 -87.598569 -7.378206 -2.914170 0.822825 -0.512577 -0.160238 -1.320848 0.456148 -0.259186 0.699044 0.908213 -0.358007 0.000000 0.000000 0.000000 -1.460724 0.502287 -0.294720 -5.363885 4.363150 -8.800580 3.263553 8.137177 -11.357257 0.000000 0.000000 0.000000 -0.380849 0.547439 -0.113554 0.351362 -6.277144 -0.783987 -0.648330 1.782627 -3.039286 45.253418 -42.193880 -31.348270 4.780004 -86.352456 4.023086 0.000000 0.000000 0.000000 -0.203605 0.865449 -0.477739 0.339430 0.605294 2.662689 7.627674 7.899625 -0.827670 -4.744897 1.143608 81.110525 -179.233207 54.366783 -179.874958 0.000000 0.000000 0.000000 
0.014959 36.851894 -0.396738 0.000000 0.000000 0.000000 -87.484526 -6.846115 -1.217460 8.927004 23.922026 13.909460 -2.211267 -0.149938 4.274158 15.097170 29.961018 -25.454515 -3.649190 -0.194180 1.719955 0.000000 0.000000 0.000000 -89.929419 -3.330708 1.025945 12.588273 -25.126167 -18.291815 -7.342177 -0.933909 -5.303702 30.680872 -33.151177 38.105875 -10.549690 0.912065 -2.950083 0.000000 0.000000 0.000000 -87.591500 -7.354160 -2.907209 0.831680 -0.508383 -0.144416 -1.317380 0.459812 -0.256357 0.719101 0.901529 -0.344444 0.000000 0.000000 0.000000 -1.467861 0.508137 -0.293137 -5.314022 4.418956 -8.842218 3.343585 8.245970 -11.351516 0.000000 0.000000 0.000000 -0.375241 0.549249 -0.123636 0.351346 -6.286248 -0.792418 -0.632129 1.840918 -3.008693 45.231394 -42.206573 -31.362480 4.812916 -86.352668 4.056819 0.000000 0.000000 0.000000 -0.188803 0.879984 -0.468316 0.348587 0.605199 2.671269 7.628507 7.893323 -0.863102 -4.708794 1.194541 81.056840 -179.261771 54.382263 -179.838935 0.000000 0.000000 0.000000 
0.024470 36.855118 -0.390434 0.000000 0.000000 0.000000 -87.489136 -6.835180 -1.200286 8.927654 23.914605 13.896650 -2.220911 -0.174545 4.260771 15.078431 29.948071 -25.433212 -3.637406 -0.195924 1.718038 0.000000 0.000000 0.000000 -89.928053 -3.325769 1.038200 12.570247 -25.142068 -18.311059 -7.351198 -0.922034 -5.313808 30.669438 -33.146843 38.094509 -10.586361 0.905534 -2.942016 0.000000 0.000000 0.000000 -87.589438 -7.343096 -2.909776 0.844617 -0.511607 -0.120065 -1.316909 0.462652 -0.251216 0.728124 0.891626 -0.317326 0.000000 0.000000 0.000000 -1.478253 0.512418 -0.290348 -5.329299 4.455818 -8.832336 3.714201 8.370540 -11.531538 0.000000 0.000000 0.000000 -0.369825 0.546531 -0.129753 0.346833 -6.281232 -0.810614 -0.604947 1.902184 -2.955917 45.185366 -42.209722 -31.418986 4.709143 -86.351807 3.957762 0.000000 0.000000 0.000000 -0.176196 0.891195 -0.458220 0.359103 0.596954 2.707168 7.623364 7.891373 -0.894078 -4.701083 1.303909 80.965459 -179.284652 54.435231 -179.796862 0.000000 0.000000 0.000000 
0.033244 36.858810 -0.387342 0.000000 0.000000 0.000000 -87.493262 -6.824173 -1.179650 8.928629 23.913942 13.878102 -2.225681 -0.211072 4.252238 15.051066 29.932454 -25.416211 -3.619917 -0.198050 1.711671 0.000000 0.000000 0.000000 -89.926742 -3.319190 1.053578 12.545399 -25.167126 -18.335141 -7.349886 -0.899041 -5.326039 30.648893 -33.143128 38.079039 -10.645800 0.900965 -2.930373 0.000000 0.000000 0.000000 -87.595598 -7.344230 -2.922662 0.858881 -0.522340 -0.091106 -1.320598 0.464326 -0.244593 0.724547 0.878967 -0.290569 0.000000 0.000000 0.000000 -1.492723 0.515786 -0.285084 -5.406400 4.475073 -8.785362 4.360660 8.500009 -11.889901 0.000000 0.000000 0.000000 -0.363753 0.539495 -0.132098 0.339977 -6.267056 -0.844633 -0.569178 1.954663 -2.880259 45.125537 -42.204347 -31.496721 4.463867 -86.331522 3.722933 0.000000 0.000000 0.000000 -0.166418 0.897671 -0.449282 0.371081 0.573456 2.760339 7.616152 7.903567 -0.921753 -4.713376 1.452598 80.851838 -179.291223 54.484907 -179.762506 0.000000 0.000000 0.000000 
0.040039 36.862503 -0.386263 0.000000 0.000000 0.000000 -87.501956 -6.816351 -1.159906 8.928048 23.919925 13.857377 -2.223244 -0.261204 4.249446 15.017976 29.910467 -25.412267 -3.601476 -0.200353 1.701984 0.000000 0.000000 0.000000 -89.925697 -3.306213 1.075712 12.519652 -25.201501 -18.359665 -7.339796 -0.861879 -5.339496 30.626428 -33.135683 38.064310 -10.738078 0.898650 -2.915981 0.000000 0.000000 0.000000 -87.612626 -7.357402 -2.945038 0.871809 -0.540022 -0.062190 -1.326325 0.464847 -0.237837 0.725678 0.868268 -0.268634 0.000000 0.000000 0.000000 -1.508644 0.517914 -0.277768 -5.535297 4.484163 -8.721262 5.229156 8.624818 -12.406218 0.000000 0.000000 0.000000 -0.355256 0.529627 -0.132216 0.331413 -6.242110 -0.901267 -0.540049 1.987816 -2.790843 45.060127 -42.196355 -31.572396 4.103485 -86.282529 3.379322 0.000000 0.000000 0.000000 -0.158321 0.900116 -0.443005 0.382368 0.530254 2.817408 7.608867 7.931030 -0.942457 -4.736662 1.613495 80.739728 -179.276989 54.501170 -179.744856 0.000000 0.000000 0.000000 
0.044360 36.865631 -0.384403 0.000000 0.000000 0.000000 -87.519701 -6.812251 -1.143358 8.926457 23.932348 13.837728 -2.213147 -0.323632 4.251078 14.979486 29.882187 -25.421693 -3.583973 -0.203095 1.689924 0.000000 0.000000 0.000000 -89.927725 -3.284124 1.106806 12.495493 -25.244053 -18.380104 -7.321123 -0.813917 -5.353730 30.605200 -33.126827 38.047436 -10.858781 0.898270 -2.898863 0.000000 0.000000 0.000000 -87.641340 -7.379218 -2.972209 0.880837 -0.561725 -0.038831 -1.331387 0.464853 -0.231270 0.729609 0.866061 -0.261052 0.000000 0.000000 0.000000 -1.523735 0.519285 -0.269009 -5.700326 4.493000 -8.660512 6.250918 8.752461 -13.045083 0.000000 0.000000 0.000000 -0.345418 0.519076 -0.130632 0.322347 -6.205771 -0.978192 -0.528325 1.990492 -2.708447 44.989677 -42.195864 -31.627700 3.729028 -86.215244 3.025494 0.000000 0.000000 0.000000 -0.151971 0.899585 -0.440129 0.388930 0.464851 2.863970 7.611115 7.974197 -0.959332 -4.758421 1.761564 80.644822 -179.245829 54.480703 -179.745362 0.000000 0.000000 0.000000 
0.046430 36.867828 -0.380829 0.000000 0.000000 0.000000 -87.545595 -6.810609 -1.129982 8.924771 23.955586 13.821105 -2.198064 -0.390853 4.255770 14.932197 29.853466 -25.435251 -3.566433 -0.205941 1.675153 0.000000 0.000000 0.000000 -89.936250 -3.256553 1.141931 12.469987 -25.294004 -18.393998 -7.294366 -0.762670 -5.368297 30.584265 -33.124901 38.020993 -10.987629 0.899485 -2.878404 0.000000 0.000000 0.000000 -87.677315 -7.407431 -3.000401 0.887331 -0.583716 -0.024532 -1.334549 0.464585 -0.226048 0.735515 0.885637 -0.255804 0.000000 0.000000 0.000000 -1.539171 0.520218 -0.259251 -5.890331 4.508063 -8.618021 7.327213 8.883225 -13.747762 0.000000 0.000000 0.000000 -0.335247 0.510363 -0.127698 0.314219 -6.154073 -1.073021 -0.526646 1.979643 -2.634175 44.922680 -42.216098 -31.647374 3.398323 -86.148671 2.715613 0.000000 0.000000 0.000000 -0.144395 0.897582 -0.440383 0.389320 0.382010 2.892468 7.626091 8.022461 -0.984815 -4.772948 1.885294 80.585003 -179.208741 54.450009 -179.758913 0.000000 0.000000 0.000000 
0.047022 36.870438 -0.375597 0.000000 0.000000 0.000000 -87.574835 -6.807179 -1.117139 8.921375 23.993386 13.808687 -2.182319 -0.456512 4.262784 14.874320 29.829943 -25.444237 -3.549341 -0.208174 1.657728 0.000000 0.000000 0.000000 -89.948721 -3.226960 1.177528 12.442393 -25.350310 -18.400354 -7.262801 -0.713259 -5.383195 30.565336 -33.133562 37.986674 -11.109739 0.901599 -2.854819 0.000000 0.000000 0.000000 -87.716397 -7.437460 -3.022983 0.895136 -0.603343 -0.019990 -1.334010 0.464408 -0.222050 0.729757 0.908856 -0.247005 0.000000 0.000000 0.000000 -1.554516 0.521246 -0.250403 -6.097488 4.532706 -8.596606 8.347871 9.015144 -14.449393 0.000000 0.000000 0.000000 -0.327385 0.505421 -0.122652 0.307795 -6.081113 -1.172023 -0.532244 1.956372 -2.572172 44.879817 -42.255512 -31.618421 3.119277 -86.094753 2.454276 0.000000 0.000000 0.000000 -0.133846 0.895907 -0.442319 0.381205 0.288069 2.899929 7.650053 8.070674 -1.001191 -4.784679 1.974834 80.566924 -179.177049 54.447372 -179.779499 0.000000 0.000000 0.000000 
0.047036 36.873413 -0.369734 0.000000 0.000000 0.000000 -87.603064 -6.799980 -1.103686 8.914186 24.044100 13.800037 -2.168447 -0.516190 4.270606 14.811330 29.814073 -25.447582 -3.534749 -0.209700 1.639659 0.000000 0.000000 0.000000 -89.961234 -3.197786 1.211906 12.413572 -25.408051 -18.399888 -7.228558 -0.667719 -5.396653 30.551351 -33.151423 37.950392 -11.222981 0.904120 -2.829718 0.000000 0.000000 0.000000 -87.752727 -7.464560 -3.036377 0.904740 -0.618732 -0.024502 -1.329908 0.463466 -0.219490 0.720299 0.942032 -0.240603 0.000000 0.000000 0.000000 -1.569662 0.521825 -0.242871 -6.317101 4.554365 -8.586420 9.227598 9.131338 -15.081947 0.000000 0.000000 0.000000 -0.325737 0.504921 -0.115283 0.304982 -5.996647 -1.257741 -0.542733 1.923320 -2.520831 44.867642 -42.305338 -31.545461 2.887522 -86.055930 2.237560 0.000000 0.000000 0.000000 -0.124023 0.894660 -0.445658 0.365509 0.186103 2.884335 7.679170 8.115618 -0.987744 -4.798145 2.030420 80.584238 -179.154892 54.487404 -179.804662 0.000000 0.000000 0.000000 
